<?xml version="1.0" encoding="UTF-8"?>
<svg width="64px" height="64px" viewBox="0 0 64 64" version="1.1" xmlns="http://www.w3.org/2000/svg" xmlns:xlink="http://www.w3.org/1999/xlink">
    <!-- Generator: Sketch 51.3 (57544) - http://www.bohemiancoding.com/sketch -->
    <title>employees-icon</title>
    <desc>Created with Sketch.</desc>
    <defs></defs>
    <g id="Landing-Page" stroke="none" stroke-width="1" fill="none" fill-rule="evenodd">
        <g id="employees-icon" fill="#FFFFFF" fill-rule="nonzero">
            <path d="M51.1980606,27.4850909 C50.9401212,27.4850909 50.6938182,27.382303 50.5115152,27.2019394 L38.1692121,14.8596364 C37.7910303,14.4814545 37.7910303,13.8666667 38.1692121,13.4884848 L48.4538182,3.20193939 C48.832,2.82375758 49.4467879,2.82375758 49.8249697,3.20193939 C50.2031515,3.58012121 50.2031515,4.19490909 49.8249697,4.57309091 L40.2249697,14.1730909 L51.1961212,25.1442424 L60.7961212,15.5442424 C61.174303,15.1660606 61.7890909,15.1660606 62.1672727,15.5442424 C62.5454545,15.9224242 62.5454545,16.5372121 62.1672727,16.9153939 L51.8826667,27.2019394 C51.702303,27.382303 51.456,27.4850909 51.1980606,27.4850909 Z" id="Shape"></path>
            <path d="M56.6846061,21.9985455 C56.4363636,21.9985455 56.1881212,21.9035152 55.9980606,21.7153939 L43.6557576,9.3750303 C43.2775758,8.99684848 43.2775758,8.38206061 43.6557576,8.00387879 L49.142303,2.51733333 C49.5204848,2.13915152 50.1352727,2.13915152 50.5134545,2.51733333 C50.8916364,2.89551515 50.8916364,3.51030303 50.5134545,3.88848485 L45.7134545,8.69042424 L56.6846061,19.6596364 L61.4846061,14.8596364 C61.8627879,14.4814545 62.4775758,14.4814545 62.8557576,14.8596364 C63.2339394,15.2378182 63.2339394,15.8526061 62.8557576,16.2307879 L57.3711515,21.7153939 C57.1810909,21.9035152 56.9328485,21.9985455 56.6846061,21.9985455 Z" id="Shape"></path>
            <path d="M37.4865455,19.2562424 C37.238303,19.2562424 36.9900606,19.1612121 36.8,18.9730909 C36.4218182,18.5949091 36.4218182,17.9801212 36.8,17.6019394 L38.857697,15.5442424 C39.2358788,15.1660606 39.8506667,15.1660606 40.2288485,15.5442424 C40.6070303,15.9224242 40.6070303,16.5372121 40.2288485,16.9153939 L38.1711515,18.9730909 C37.9810909,19.1612121 37.7347879,19.2562424 37.4865455,19.2562424 Z" id="Shape"></path>
            <circle id="Oval" transform="translate(51.197514, 21.029726) rotate(-45.000000) translate(-51.197514, -21.029726) " cx="51.1975141" cy="21.0297259" r="1"></circle>
            <path d="M40.2288485,38.454303 C39.9806061,38.454303 39.7323636,38.3592727 39.542303,38.1711515 C39.1641212,37.7929697 39.1641212,37.1781818 39.542303,36.8 L46.4,29.9442424 C46.7762424,29.5660606 46.7762424,28.9512727 46.4,28.5730909 C46.0237576,28.1949091 46.0218182,27.5801212 46.4,27.2019394 L48.457697,25.1442424 L40.2288485,16.9153939 L38.1711515,18.9730909 C37.7929697,19.3512727 37.1781818,19.3512727 36.8,18.9730909 C36.4218182,18.5949091 36.4218182,17.9801212 36.8,17.6019394 L39.542303,14.8596364 C39.9069091,14.4950303 40.5507879,14.4950303 40.9134545,14.8596364 L50.5134545,24.4596364 C50.8916364,24.8378182 50.8916364,25.4526061 50.5134545,25.8307879 L48.3393939,28.0048485 C48.8533333,29.0870303 48.6632727,30.4213333 47.7730909,31.3153939 L40.9153939,38.1711515 C40.7253333,38.3592727 40.4770909,38.454303 40.2288485,38.454303 Z" id="Shape"></path>
            <path d="M29.257697,21.9985455 C29.0094545,21.9985455 28.7612121,21.9035152 28.5711515,21.7153939 C28.1929697,21.3372121 28.1929697,20.7224242 28.5711515,20.3442424 L32,16.9153939 C32.2598788,16.6535758 32.6438788,16.5682424 32.9929697,16.6807273 L36.5381818,17.8618182 L37.44,16.96 C37.8181818,16.5818182 38.4329697,16.5818182 38.8111515,16.96 C39.1893333,17.3381818 39.1893333,17.9529697 38.8111515,18.3311515 L37.4846061,19.657697 C37.2247273,19.9195152 36.8407273,20.0067879 36.4916364,19.8923636 L32.9464242,18.7112727 L29.942303,21.7153939 C29.7541818,21.9035152 29.5059394,21.9985455 29.257697,21.9985455 Z" id="Shape"></path>
            <path d="M14.857697,61.0831515 C14.6094545,61.0831515 14.3612121,60.9881212 14.1711515,60.8 C13.7929697,60.4218182 13.7929697,59.8070303 14.1711515,59.4288485 L23.7711515,49.8288485 L12.8,38.857697 L3.2,48.457697 C2.82181818,48.8358788 2.2070303,48.8358788 1.82884848,48.457697 C1.45066667,48.0795152 1.45066667,47.4647273 1.82884848,47.0865455 L12.1134545,36.8 C12.4780606,36.4353939 13.1219394,36.4353939 13.4846061,36.8 L25.8269091,49.142303 C26.2050909,49.5204848 26.2050909,50.1352727 25.8269091,50.5134545 L15.542303,60.8 C15.3541818,60.9881212 15.1059394,61.0831515 14.857697,61.0831515 Z" id="Shape"></path>
            <path d="M14.1730909,61.769697 C13.9248485,61.769697 13.6766061,61.6746667 13.4865455,61.4865455 C13.1083636,61.1083636 13.1083636,60.4935758 13.4865455,60.1153939 L18.2865455,55.3134545 L7.31539394,44.3442424 L2.51539394,49.1442424 C2.13721212,49.5224242 1.52242424,49.5224242 1.14424242,49.1442424 C0.766060606,48.7660606 0.766060606,48.1512727 1.14424242,47.7730909 L6.62884848,42.2884848 C7.0070303,41.910303 7.62181818,41.910303 8,42.2884848 L20.342303,54.6288485 C20.7204848,55.0070303 20.7204848,55.6218182 20.342303,56 L14.8557576,61.4865455 C14.6676364,61.6746667 14.4213333,61.769697 14.1730909,61.769697 Z" id="Shape"></path>
            <path d="M24.457697,48.7408485 C24.2094545,48.7408485 23.9612121,48.6458182 23.7711515,48.457697 C23.3929697,48.0795152 23.3929697,47.4647273 23.7711515,47.0865455 L25.8288485,45.0288485 C26.2070303,44.6506667 26.8218182,44.6506667 27.2,45.0288485 C27.5781818,45.4070303 27.5781818,46.0218182 27.2,46.4 L25.142303,48.457697 C24.9541818,48.6458182 24.7059394,48.7408485 24.457697,48.7408485 Z" id="Shape"></path>
            <circle id="Oval" transform="translate(12.801322, 42.970274) rotate(-45.000000) translate(-12.801322, -42.970274) " cx="12.8013223" cy="42.9702741" r="1"></circle>
            <path d="M31.3134545,41.8850909 C31.0652121,41.8850909 30.8169697,41.7900606 30.6269091,41.6019394 C30.2487273,41.2237576 30.2487273,40.6089697 30.6269091,40.2307879 L39.5403636,31.3153939 C39.9185455,30.9372121 39.9185455,30.3224242 39.5403636,29.9442424 C39.1718788,29.577697 38.5318788,29.577697 38.1692121,29.9442424 L35.4249697,32.6865455 C35.0467879,33.0647273 34.432,33.0647273 34.0538182,32.6865455 C33.6756364,32.3083636 33.6756364,31.6935758 34.0538182,31.3153939 L36.7980606,28.5730909 C37.8938182,27.4753939 39.8118788,27.4753939 40.9115152,28.5730909 C42.0460606,29.7076364 42.0460606,31.552 40.9115152,32.6865455 L32,41.6 C31.8099394,41.7900606 31.561697,41.8850909 31.3134545,41.8850909 Z" id="Shape"></path>
            <path d="M34.742303,32.969697 C34.4940606,32.969697 34.2458182,32.8746667 34.0557576,32.6865455 C33.6775758,32.3083636 33.6775758,31.6935758 34.0557576,31.3153939 L36.8,28.5730909 C37.1762424,28.1949091 37.1762424,27.5801212 36.8,27.2019394 C36.4237576,26.8237576 35.8070303,26.8237576 35.4288485,27.2019394 L32.6865455,29.9442424 C32.3083636,30.3224242 31.6935758,30.3224242 31.3153939,29.9442424 C30.9372121,29.5660606 30.9372121,28.9512727 31.3153939,28.5730909 L34.057697,25.8307879 C35.190303,24.694303 37.0366061,24.694303 38.1730909,25.8307879 C39.305697,26.9653333 39.305697,28.809697 38.1730909,29.9442424 L35.4288485,32.6865455 C35.2387879,32.8746667 34.9905455,32.969697 34.742303,32.969697 Z" id="Shape"></path>
            <path d="M32,30.2273939 C31.7517576,30.2273939 31.5035152,30.1323636 31.3134545,29.9442424 C30.9352727,29.5660606 30.9352727,28.9512727 31.3134545,28.5730909 L34.0557576,25.8307879 C34.24,25.6465455 34.3389091,25.4021818 34.3389091,25.1442424 C34.3389091,24.886303 34.2380606,24.6438788 34.0557576,24.4596364 C33.6872727,24.0950303 33.0511515,24.0930909 32.6826667,24.4596364 L29.9403636,27.2019394 C29.5621818,27.5801212 28.9473939,27.5801212 28.5692121,27.2019394 C28.1910303,26.8237576 28.1910303,26.2089697 28.5692121,25.8307879 L31.3115152,23.0884848 C32.4092121,21.9907879 34.3272727,21.9907879 35.4269091,23.0884848 C35.9757576,23.6353939 36.2763636,24.3646061 36.278303,25.1442424 C36.278303,25.92 35.9757576,26.6530909 35.4269091,27.2038788 L32.6846061,29.9461818 C32.4964848,30.1323636 32.2482424,30.2273939 32,30.2273939 Z" id="Shape"></path>
            <path d="M23.7711515,49.4254545 C23.5132121,49.4254545 23.2669091,49.3226667 23.0846061,49.142303 L13.4846061,39.542303 C13.1064242,39.1641212 13.1064242,38.5493333 13.4846061,38.1711515 L15.6586667,35.9970909 C15.1447273,34.9149091 15.3347879,33.5806061 16.2249697,32.6865455 L28.5692121,20.3442424 C29.6649697,19.2465455 31.5830303,19.2465455 32.6826667,20.3442424 C33.8172121,21.4787879 33.8172121,23.3250909 32.6826667,24.4596364 L29.9403636,27.2019394 C29.5621818,27.5801212 28.9473939,27.5801212 28.5692121,27.2019394 C28.1910303,26.8237576 28.1910303,26.2089697 28.5692121,25.8307879 L31.3115152,23.0884848 C31.689697,22.710303 31.689697,22.0935758 31.3115152,21.7153939 C30.9430303,21.3488485 30.3049697,21.3488485 29.9403636,21.7153939 L17.5961212,34.057697 C17.2198788,34.4358788 17.2198788,35.0506667 17.5961212,35.4288485 C17.9723636,35.8070303 17.974303,36.4218182 17.5961212,36.8 L15.5384242,38.857697 L23.7672727,47.0865455 L25.8249697,45.0288485 C26.2031515,44.6506667 26.8179394,44.6506667 27.1961212,45.0288485 C27.574303,45.4070303 27.574303,46.0218182 27.1961212,46.4 L24.4538182,49.142303 C24.2753939,49.3246061 24.0290909,49.4254545 23.7711515,49.4254545 Z" id="Shape"></path>
            <path d="M31.3134545,47.369697 C31.2106667,47.369697 31.1078788,47.3522424 31.0070303,47.3212121 L27.4618182,46.1381818 L26.56,47.04 C26.1818182,47.4181818 25.5670303,47.4181818 25.1888485,47.04 C24.8106667,46.6618182 24.8106667,46.0470303 25.1888485,45.6688485 L26.5153939,44.342303 C26.7752727,44.0804848 27.1612121,43.9932121 27.5083636,44.1076364 L31.0535758,45.2887273 L38.1886061,38.153697 C37.2596364,37.5214545 35.9815758,37.6164848 35.1592727,38.4387879 L31.414303,42.1837576 C31.0361212,42.5619394 30.4213333,42.5619394 30.0431515,42.1837576 C29.6649697,41.8055758 29.6649697,41.1907879 30.0431515,40.8126061 L33.7881212,37.0676364 C35.4734545,35.382303 38.2196364,35.382303 39.9069091,37.0676364 L40.2753939,37.4361212 C40.6535758,37.814303 40.6535758,38.4290909 40.2753939,38.8072727 L32,47.0846061 C31.8157576,47.2707879 31.5675152,47.369697 31.3134545,47.369697 Z" id="Shape"></path>
            <path d="M47.7711515,62.454303 C47.5229091,62.454303 47.2746667,62.3592727 47.0846061,62.1711515 L36.8,51.8846061 C36.4218182,51.5064242 36.4218182,50.8916364 36.8,50.5134545 L49.142303,38.1711515 C49.5069091,37.8065455 50.1507879,37.8065455 50.5134545,38.1711515 L60.7980606,48.457697 C61.1762424,48.8358788 61.1762424,49.4506667 60.7980606,49.8288485 C60.4198788,50.2070303 59.8050909,50.2070303 59.4269091,49.8288485 L49.8269091,40.2288485 L38.8557576,51.2 L48.4557576,60.8 C48.8339394,61.1781818 48.8339394,61.7929697 48.4557576,62.1711515 C48.2676364,62.3592727 48.0193939,62.454303 47.7711515,62.454303 Z" id="Shape"></path>
            <path d="M48.4557576,63.1408485 C48.2075152,63.1408485 47.9592727,63.0458182 47.7692121,62.857697 L42.2826667,57.3711515 C41.9044848,56.9929697 41.9044848,56.3781818 42.2826667,56 L54.6249697,43.6596364 C55.0031515,43.2814545 55.6179394,43.2814545 55.9961212,43.6596364 L61.4807273,49.1442424 C61.8589091,49.5224242 61.8589091,50.1372121 61.4807273,50.5153939 C61.1025455,50.8935758 60.4877576,50.8935758 60.1095758,50.5153939 L55.3095758,45.7153939 L44.3384242,56.6846061 L49.1384242,61.4865455 C49.5166061,61.8647273 49.5166061,62.4795152 49.1384242,62.857697 C48.9522424,63.0458182 48.704,63.1408485 48.4557576,63.1408485 Z" id="Shape"></path>
            <path d="M47.7711515,40.512 C47.5229091,40.512 47.2746667,40.4169697 47.0846061,40.2288485 L45.0269091,38.1711515 C44.6487273,37.7929697 44.6487273,37.1781818 45.0269091,36.8 C45.4050909,36.4218182 46.0198788,36.4218182 46.3980606,36.8 L48.4557576,38.857697 C48.8339394,39.2358788 48.8339394,39.8506667 48.4557576,40.2288485 C48.2676364,40.4169697 48.0193939,40.512 47.7711515,40.512 Z" id="Shape"></path>
            <circle id="Oval" transform="translate(42.969498, 51.198096) rotate(-45.000000) translate(-42.969498, -51.198096) " cx="42.9694984" cy="51.1980959" r="1"></circle>
            <path d="M38.857697,50.7966061 C38.6094545,50.7966061 38.3612121,50.7015758 38.1711515,50.5134545 L35.9970909,48.3413333 C34.9323636,48.8475152 33.5476364,48.6322424 32.6846061,47.7711515 L31.3134545,46.4 C30.9352727,46.0218182 30.9352727,45.4070303 31.3134545,45.0288485 C31.6916364,44.6506667 32.3064242,44.6506667 32.6846061,45.0288485 L34.0557576,46.4 C34.4242424,46.7665455 35.0642424,46.7665455 35.4269091,46.4 C35.7895758,46.0373333 36.4353939,46.0353939 36.8,46.4 L38.857697,48.457697 L47.0865455,40.2288485 L45.0288485,38.1711515 C44.6506667,37.7929697 44.6506667,37.1781818 45.0288485,36.8 C45.4070303,36.4218182 46.0218182,36.4218182 46.4,36.8 L49.142303,39.542303 C49.5204848,39.9204848 49.5204848,40.5352727 49.142303,40.9134545 L39.542303,50.5134545 C39.3541818,50.7035152 39.1059394,50.7966061 38.857697,50.7966061 Z" id="Shape"></path>
            <path d="M46.3534545,39.094303 C46.1052121,39.094303 45.8569697,38.9992727 45.6669091,38.8111515 L44.3403636,37.4846061 C44.0804848,37.2247273 43.9893333,36.8407273 44.105697,36.4916364 L45.2867879,32.9464242 L45.0249697,32.6846061 C44.6467879,32.3064242 44.6467879,31.6916364 45.0249697,31.3134545 C45.4031515,30.9352727 46.0179394,30.9352727 46.3961212,31.3134545 L47.0846061,32 C47.3444848,32.2598788 47.4356364,32.6438788 47.3192727,32.9929697 L46.1381818,36.5381818 L47.04,37.44 C47.4181818,37.8181818 47.4181818,38.4329697 47.04,38.8111515 C46.8499394,38.9992727 46.601697,39.094303 46.3534545,39.094303 Z" id="Shape"></path>
            <path d="M14.1730909,26.1139394 C13.9151515,26.1139394 13.6688485,26.0111515 13.4865455,25.8307879 L3.20193939,15.5442424 C2.82375758,15.1660606 2.82375758,14.5512727 3.20193939,14.1730909 C3.58012121,13.7949091 4.19490909,13.7949091 4.57309091,14.1730909 L14.1730909,23.7730909 L25.1442424,12.8019394 L15.5442424,3.20193939 C15.1660606,2.82375758 15.1660606,2.2089697 15.5442424,1.83078788 C15.9224242,1.45260606 16.5372121,1.45260606 16.9153939,1.83078788 L27.2,12.1173333 C27.5781818,12.4955152 27.5781818,13.110303 27.2,13.4884848 L14.857697,25.8307879 C14.6753939,26.0111515 14.4290909,26.1139394 14.1730909,26.1139394 Z" id="Shape"></path>
            <path d="M8.68654545,20.6273939 C8.43830303,20.6273939 8.19006061,20.5323636 8,20.3442424 L2.51539394,14.8596364 C2.13721212,14.4814545 2.13721212,13.8666667 2.51539394,13.4884848 C2.89357576,13.110303 3.50836364,13.110303 3.88654545,13.4884848 L8.68654545,18.2884848 L19.657697,7.31927273 L14.857697,2.51733333 C14.4795152,2.13915152 14.4795152,1.52436364 14.857697,1.14618182 C15.2358788,0.768 15.8506667,0.768 16.2288485,1.14618182 L21.7153939,6.63272727 C22.0935758,7.01090909 22.0935758,7.62569697 21.7153939,8.00387879 L9.37309091,20.3442424 C9.1830303,20.5323636 8.93478788,20.6273939 8.68654545,20.6273939 Z" id="Shape"></path>
            <path d="M18.2865455,27.4850909 C18.038303,27.4850909 17.7900606,27.3900606 17.6,27.2019394 L15.542303,25.1442424 C15.1641212,24.7660606 15.1641212,24.1512727 15.542303,23.7730909 C15.9204848,23.3949091 16.5352727,23.3949091 16.9134545,23.7730909 L18.9711515,25.8307879 C19.3493333,26.2089697 19.3493333,26.8237576 18.9711515,27.2019394 C18.7830303,27.3900606 18.5347879,27.4850909 18.2865455,27.4850909 Z" id="Shape"></path>
            <circle id="Oval" transform="translate(21.029144, 12.801904) rotate(-45.000000) translate(-21.029144, -12.801904) " cx="21.029144" cy="12.8019041" r="1"></circle>
            <path d="M18.2865455,27.4850909 C18.038303,27.4850909 17.7900606,27.3900606 17.6,27.2019394 L14.857697,24.4596364 C14.4795152,24.0814545 14.4795152,23.4666667 14.857697,23.0884848 L24.457697,13.4884848 C24.8358788,13.110303 25.4506667,13.110303 25.8288485,13.4884848 L28.0029091,15.6606061 C29.0676364,15.1524848 30.454303,15.369697 31.3153939,16.2307879 L32.6865455,17.6019394 C33.0647273,17.9801212 33.0647273,18.5949091 32.6865455,18.9730909 C32.3083636,19.3512727 31.6935758,19.3512727 31.3153939,18.9730909 L29.9442424,17.6019394 C29.577697,17.2353939 28.937697,17.2353939 28.5730909,17.6019394 C28.2104242,17.9665455 27.5646061,17.9665455 27.2,17.6019394 L25.142303,15.5442424 L16.9134545,23.7730909 L18.9711515,25.8307879 C19.3493333,26.2089697 19.3493333,26.8237576 18.9711515,27.2019394 C18.7830303,27.3900606 18.5347879,27.4850909 18.2865455,27.4850909 Z" id="Shape"></path>
            <path d="M18.2865455,32.969697 C18.038303,32.969697 17.7900606,32.8746667 17.6,32.6865455 L16.9153939,32 C16.6555152,31.7401212 16.5643636,31.3561212 16.6807273,31.0070303 L17.8618182,27.4618182 L16.96,26.56 C16.5818182,26.1818182 16.5818182,25.5670303 16.96,25.1888485 C17.3381818,24.8106667 17.9529697,24.8106667 18.3311515,25.1888485 L19.657697,26.5153939 C19.9175758,26.7752727 20.0087273,27.1592727 19.8923636,27.5083636 L18.7112727,31.0535758 L18.9730909,31.3153939 C19.3512727,31.6935758 19.3512727,32.3083636 18.9730909,32.6865455 C18.7830303,32.8746667 18.5347879,32.969697 18.2865455,32.969697 Z" id="Shape"></path>
        </g>
    </g>
</svg>