<svg height="222" viewBox="0 0 222 222" width="222" xmlns="http://www.w3.org/2000/svg"><g fill="none" fill-rule="evenodd"><path d="m0 0h222v222h-222z" fill="#f4f4f4" fill-rule="nonzero"/><g fill="#000" opacity=".1" transform="translate(-37 -37)"><path d="m127.2128 67.3126129-55.11 30.7682243-56.21-30.7682243c-2.09-1.2130841-4.84-.3308411-5.94 1.764486-1.21 2.0953271-.33 4.8523365 1.76 5.9551402l58.3 31.9813089c1.32.771962 2.97.771962 4.29 0l57.2-31.9813089c2.09-1.2130841 2.86-3.8598131 1.65-5.9551402-1.21-2.2056074-3.85-2.9775701-5.94-1.764486zm-104.5-20.4018691 49.39-28.011215 55 31.8710281c2.09 1.2130841 4.84.4411215 6.05-1.6542056s.44-4.8523365-1.65-6.0654206l-57.2-33.08411215c-1.32-.77196261-2.97-.77196261-4.4 0l-58.3 33.08411215c-2.97 1.6542056-2.97 5.9551402 0 7.7196262l58.3 33.0841121c2.09 1.2130841 4.84.4411215 6.05-1.6542056s.44-4.8523364-1.65-6.0654205zm-22.66 23.1588785v-22.0560748c-.44-5.0728972 1.87-10.2560747 6.93-13.1233645l58.3-33.08411211c4.29-2.42616822 9.46-2.42616822 13.64.11028038l57.2 33.08411213c4.73 2.7570094 7.26 7.9401869 6.82 13.0130841v22.0560748c.44 5.1831776-2.2 10.4766355-7.04 13.1233645l-57.2 31.9813082c-4.18 2.315888-9.13 2.315888-13.31 0l-58.3-31.9813082c-4.84-2.646729-7.37-7.8299066-7.04-13.1233645z"/><path d="m279.0128 67.3126129-55.11 30.7682243-56.21-30.7682243c-2.09-1.2130841-4.84-.3308411-5.94 1.764486-1.21 2.0953271-.33 4.8523365 1.76 5.9551402l58.3 31.9813089c1.32.771962 2.97.771962 4.29 0l57.2-31.9813089c2.09-1.2130841 2.86-3.8598131 1.65-5.9551402-1.21-2.2056074-3.85-2.9775701-5.94-1.764486zm-104.5-20.4018691 49.39-28.011215 55 31.8710281c2.09 1.2130841 4.84.4411215 6.05-1.6542056s.44-4.8523365-1.65-6.0654206l-57.2-33.08411215c-1.32-.77196261-2.97-.77196261-4.4 0l-58.3 33.08411215c-2.97 1.6542056-2.97 5.9551402 0 7.7196262l58.3 33.0841121c2.09 1.2130841 4.84.4411215 6.05-1.6542056s.44-4.8523364-1.65-6.0654205zm-22.66 23.1588785v-22.0560748c-.44-5.0728972 1.87-10.2560747 6.93-13.1233645l58.3-33.08411211c4.29-2.42616822 9.46-2.42616822 13.64.11028038l57.2 33.08411213c4.73 2.7570094 7.26 7.9401869 6.82 13.0130841v22.0560748c.44 5.1831776-2.2 10.4766355-7.04 13.1233645l-57.2 31.9813082c-4.18 2.315888-9.13 2.315888-13.31 0l-58.3-31.9813082c-4.84-2.646729-7.37-7.8299066-7.04-13.1233645z"/><path d="m127.2128 245.966819-55.11 30.768224-56.21-30.768224c-2.09-1.213085-4.84-.330842-5.94 1.764486-1.21 2.095327-.33 4.852336 1.76 5.95514l58.3 31.981308c1.32.771963 2.97.771963 4.29 0l57.2-31.981308c2.09-1.213084 2.86-3.859813 1.65-5.95514-1.21-2.205608-3.85-2.977571-5.94-1.764486zm-104.5-20.40187 49.39-28.011215 55 31.871028c2.09 1.213085 4.84.441122 6.05-1.654205s.44-4.852337-1.65-6.065421l-57.2-33.084112c-1.32-.771962-2.97-.771962-4.4 0l-58.3 33.084112c-2.97 1.654206-2.97 5.95514 0 7.719626l58.3 33.084113c2.09 1.213084 4.84.441121 6.05-1.654206s.44-4.852336-1.65-6.065421zm-22.66 23.158879v-22.056075c-.44-5.072897 1.87-10.256075 6.93-13.123364l58.3-33.084113c4.29-2.426168 9.46-2.426168 13.64.110281l57.2 33.084112c4.73 2.757009 7.26 7.940187 6.82 13.013084v22.056075c.44 5.183177-2.2 10.476635-7.04 13.123364l-57.2 31.981309c-4.18 2.315888-9.13 2.315888-13.31 0l-58.3-31.981309c-4.84-2.646729-7.37-7.829906-7.04-13.123364z"/><path d="m279.0128 245.966819-55.11 30.768224-56.21-30.768224c-2.09-1.213085-4.84-.330842-5.94 1.764486-1.21 2.095327-.33 4.852336 1.76 5.95514l58.3 31.981308c1.32.771963 2.97.771963 4.29 0l57.2-31.981308c2.09-1.213084 2.86-3.859813 1.65-5.95514-1.21-2.205608-3.85-2.977571-5.94-1.764486zm-104.5-20.40187 49.39-28.011215 55 31.871028c2.09 1.213085 4.84.441122 6.05-1.654205s.44-4.852337-1.65-6.065421l-57.2-33.084112c-1.32-.771962-2.97-.771962-4.4 0l-58.3 33.084112c-2.97 1.654206-2.97 5.95514 0 7.719626l58.3 33.084113c2.09 1.213084 4.84.441121 6.05-1.654206s.44-4.852336-1.65-6.065421zm-22.66 23.158879v-22.056075c-.44-5.072897 1.87-10.256075 6.93-13.123364l58.3-33.084113c4.29-2.426168 9.46-2.426168 13.64.110281l57.2 33.084112c4.73 2.757009 7.26 7.940187 6.82 13.013084v22.056075c.44 5.183177-2.2 10.476635-7.04 13.123364l-57.2 31.981309c-4.18 2.315888-9.13 2.315888-13.31 0l-58.3-31.981309c-4.84-2.646729-7.37-7.829906-7.04-13.123364z"/><path d="m203.1128 156.639716-55.11 30.768224-56.21-30.768224c-2.09-1.213084-4.84-.330841-5.94 1.764486-1.21 2.095327-.33 4.852336 1.76 5.95514l58.3 31.981308c1.32.771963 2.97.771963 4.29 0l57.2-31.981308c2.09-1.213084 2.86-3.859813 1.65-5.95514-1.21-2.205608-3.85-2.97757-5.94-1.764486zm-104.5-20.401869 49.39-28.011215 55 31.871028c2.09 1.213084 4.84.441121 6.05-1.654206s.44-4.852336-1.65-6.06542l-57.2-33.0841126c-1.32-.7719627-2.97-.7719627-4.4 0l-58.3 33.0841126c-2.97 1.654205-2.97 5.95514 0 7.719626l58.3 33.084112c2.09 1.213084 4.84.441121 6.05-1.654206s.44-4.852336-1.65-6.06542zm-22.66 23.158878v-22.056075c-.44-5.072897 1.87-10.256074 6.93-13.123364l58.3-33.0841123c4.29-2.4261682 9.46-2.4261682 13.64.1102804l57.2 33.0841119c4.73 2.75701 7.26 7.940187 6.82 13.013084v22.056075c.44 5.183178-2.2 10.476636-7.04 13.123365l-57.2 31.981308c-4.18 2.315888-9.13 2.315888-13.31 0l-58.3-31.981308c-4.84-2.646729-7.37-7.829907-7.04-13.123365z"/><path d="m51.3128 156.639716-55.11 30.768224-56.21-30.768224c-2.09-1.213084-4.84-.330841-5.94 1.764486-1.21 2.095327-.33 4.852336 1.76 5.95514l58.3 31.981308c1.32.771963 2.97.771963 4.29 0l57.2-31.981308c2.09-1.213084 2.86-3.859813 1.65-5.95514-1.21-2.205608-3.85-2.97757-5.94-1.764486zm-104.5-20.401869 49.39-28.011215 55 31.871028c2.09 1.213084 4.84.441121 6.05-1.654206s.44-4.852336-1.65-6.06542l-57.2-33.0841126c-1.32-.7719627-2.97-.7719627-4.4 0l-58.3 33.0841126c-2.97 1.654205-2.97 5.95514 0 7.719626l58.3 33.084112c2.09 1.213084 4.84.441121 6.05-1.654206s.44-4.852336-1.65-6.06542zm-22.66 23.158878v-22.056075c-.44-5.072897 1.87-10.256074 6.93-13.123364l58.3-33.0841123c4.29-2.4261682 9.46-2.4261682 13.64.1102804l57.2 33.0841119c4.73 2.75701 7.26 7.940187 6.82 13.013084v22.056075c.44 5.183178-2.2 10.476636-7.04 13.123365l-57.2 31.981308c-4.18 2.315888-9.13 2.315888-13.31 0l-58.3-31.981308c-4.84-2.646729-7.37-7.829907-7.04-13.123365z"/><path d="m354.9128 156.639716-55.11 30.768224-56.21-30.768224c-2.09-1.213084-4.84-.330841-5.94 1.764486-1.21 2.095327-.33 4.852336 1.76 5.95514l58.3 31.981308c1.32.771963 2.97.771963 4.29 0l57.2-31.981308c2.09-1.213084 2.86-3.859813 1.65-5.95514-1.21-2.205608-3.85-2.97757-5.94-1.764486zm-104.5-20.401869 49.39-28.011215 55 31.871028c2.09 1.213084 4.84.441121 6.05-1.654206s.44-4.852336-1.65-6.06542l-57.2-33.0841126c-1.32-.7719627-2.97-.7719627-4.4 0l-58.3 33.0841126c-2.97 1.654205-2.97 5.95514 0 7.719626l58.3 33.084112c2.09 1.213084 4.84.441121 6.05-1.654206s.44-4.852336-1.65-6.06542zm-22.66 23.158878v-22.056075c-.44-5.072897 1.87-10.256074 6.93-13.123364l58.3-33.0841123c4.29-2.4261682 9.46-2.4261682 13.64.1102804l57.2 33.0841119c4.73 2.75701 7.26 7.940187 6.82 13.013084v22.056075c.44 5.183178-2.2 10.476636-7.04 13.123365l-57.2 31.981308c-4.18 2.315888-9.13 2.315888-13.31 0l-58.3-31.981308c-4.84-2.646729-7.37-7.829907-7.04-13.123365z"/></g></g></svg>