<svg width="719px" height="788px" viewBox="0 0 719 788" version="1.1" xmlns="http://www.w3.org/2000/svg" xmlns:xlink="http://www.w3.org/1999/xlink">
    <!-- Generator: Sketch 51.3 (57544) - http://www.bohemiancoding.com/sketch -->
    <desc>Created with Sketch.</desc>
    <defs></defs>
    <g id="Sign-In/Up" stroke="none" stroke-width="1" fill="none" fill-rule="evenodd" opacity="0.0199999996">
        <g id="sign-in-copy" transform="translate(-721.000000, -12.000000)" fill="#FFFFFF" fill-rule="nonzero">
            <g id="Group-5" transform="translate(40.000000, 12.000000)">
                <path d="M803.964775,399.92737 L1323.4202,704.380893 C1340.48108,708.788728 1352.94712,718.080094 1360.8183,732.254992 C1372.63939,753.502574 1365.51239,780.626833 1344.91851,792.823152 C1338.3182,797.905692 1330.91929,799.85474 1323.52038,799.85474 C1316.19302,799.85474 1308.87998,797.935223 1302.29681,794.066657 L702.784564,442.676832 C687.589291,433.78489 679.659608,416.782023 681.185948,399.92737 C679.659608,383.072717 687.589291,366.06985 702.784564,357.177909 L1302.29681,5.78808351 C1308.87998,1.91951749 1316.19302,0 1323.52038,0 C1330.91929,0 1338.3182,1.94904853 1344.93,5.89144215 L1947.39036,362.626385 C1967.98424,374.822704 1975.11124,401.946963 1963.29015,423.194545 C1951.48337,444.456892 1925.165,451.78059 1904.58543,439.584271 L1323.4202,95.4738469 L803.964775,399.92737 Z M1323.52038,1047 C1316.19302,1047 1308.87998,1045.08048 1302.29681,1041.21192 L702.784564,689.822091 C682.11913,677.729131 674.891953,650.634404 686.61286,629.312994 C698.333768,608.021115 724.680764,600.549762 745.246019,612.657488 L1323.4202,951.526153 L1904.58543,607.415729 C1925.165,595.175114 1951.48337,602.557873 1963.29015,623.805455 C1975.11124,645.053037 1967.98424,672.177296 1947.39036,684.373615 L1344.93,1041.10856 C1338.3182,1045.05095 1330.91929,1047 1323.52038,1047 Z" id="Combined-Shape-Copy-2"></path>
            </g>
        </g>
    </g>
</svg>