<svg height="166" viewBox="0 0 240 166" width="240" xmlns="http://www.w3.org/2000/svg"><g fill="none" fill-rule="evenodd"><ellipse cx="8" cy="8.00281" fill="#fff" rx="7" ry="7.00281" stroke="#3eb0fd" stroke-opacity=".4" stroke-width="2"/><ellipse cx="40" cy="8.00281" fill="#fff" rx="7" ry="7.00281" stroke="#3eb0fd" stroke-opacity=".4" stroke-width="2"/><ellipse cx="72" cy="8.00281" fill="#9ea9fa" rx="8" ry="8.00281"/><ellipse cx="104" cy="8.00281" fill="#fff" rx="7" ry="7.00281" stroke="#3eb0fd" stroke-opacity=".4" stroke-width="2"/><ellipse cx="136" cy="8.00281" fill="#fff" rx="7" ry="7.00281" stroke="#3eb0fd" stroke-opacity=".4" stroke-width="2"/><ellipse cx="168" cy="8.00281" fill="#fff" rx="7" ry="7.00281" stroke="#3eb0fd" stroke-opacity=".4" stroke-width="2"/><ellipse cx="200" cy="8.00281" fill="#fff" rx="7" ry="7.00281" stroke="#3eb0fd" stroke-opacity=".4" stroke-width="2"/><ellipse cx="232" cy="8.00281" fill="#fff" rx="7" ry="7.00281" stroke="#3eb0fd" stroke-opacity=".4" stroke-width="2"/><ellipse cx="8" cy="40.00281" fill="#fff" rx="7" ry="7.00281" stroke="#3eb0fd" stroke-opacity=".4" stroke-width="2"/><ellipse cx="40" cy="40.00281" fill="#fff" rx="7" ry="7.00281" stroke="#3eb0fd" stroke-opacity=".4" stroke-width="2"/><ellipse cx="72" cy="40.00281" fill="#fff" rx="7" ry="7.00281" stroke="#3eb0fd" stroke-opacity=".4" stroke-width="2"/><ellipse cx="104" cy="40.00281" fill="#9ea9fa" rx="8" ry="8.00281"/><g fill="#fff" stroke="#3eb0fd" stroke-opacity=".4" stroke-width="2"><ellipse cx="136" cy="40.00281" rx="7" ry="7.00281"/><ellipse cx="168" cy="40.00281" rx="7" ry="7.00281"/><ellipse cx="200" cy="40.00281" rx="7" ry="7.00281"/><ellipse cx="232" cy="40.00281" rx="7" ry="7.00281"/><ellipse cx="8" cy="72.00281" rx="7" ry="7.00281"/><ellipse cx="40" cy="72.00281" rx="7" ry="7.00281"/><ellipse cx="72" cy="72.00281" rx="7" ry="7.00281"/><ellipse cx="104" cy="72.00281" rx="7" ry="7.00281"/><ellipse cx="136" cy="72.00281" rx="7" ry="7.00281"/><ellipse cx="168" cy="72.00281" rx="7" ry="7.00281"/></g><ellipse cx="200" cy="72.00281" fill="#9ea9fa" rx="8" ry="8.00281"/><ellipse cx="232" cy="72.00281" fill="#fff" rx="7" ry="7.00281" stroke="#3eb0fd" stroke-opacity=".4" stroke-width="2"/><ellipse cx="8" cy="104.00281" fill="#fff" rx="7" ry="7.00281" stroke="#3eb0fd" stroke-opacity=".4" stroke-width="2"/><ellipse cx="40" cy="104.00281" fill="#9ea9fa" rx="8" ry="8.00281"/><ellipse cx="72" cy="104.00281" fill="#fff" rx="7" ry="7.00281" stroke="#3eb0fd" stroke-opacity=".4" stroke-width="2"/><ellipse cx="104" cy="104.00281" fill="#fff" rx="7" ry="7.00281" stroke="#3eb0fd" stroke-opacity=".4" stroke-width="2"/><ellipse cx="136" cy="104.00281" fill="#fff" rx="7" ry="7.00281" stroke="#3eb0fd" stroke-opacity=".4" stroke-width="2"/><ellipse cx="168" cy="104.00281" fill="#fff" rx="7" ry="7.00281" stroke="#3eb0fd" stroke-opacity=".4" stroke-width="2"/><ellipse cx="200" cy="104.00281" fill="#fff" rx="7" ry="7.00281" stroke="#3eb0fd" stroke-opacity=".4" stroke-width="2"/><ellipse cx="232" cy="104.00281" fill="#fff" rx="7" ry="7.00281" stroke="#3eb0fd" stroke-opacity=".4" stroke-width="2"/><path d="m112.166376 135.28286c-1.071987.486661-1.546203 1.751978-1.059543 2.82352l3.274626 7.210132-.766213.347996-2.219527-4.886606c-.486661-1.071986-1.751534-1.546647-2.823521-1.059542-1.071986.486661-1.546647 1.751534-1.059542 2.82352l3.12885 6.893247-.779102.353774-1.877309-4.133726c-.486661-1.071542-1.751534-1.546648-2.823521-1.059543-1.071542.486661-1.547091 1.750645-.79599 3.404402l5.399488 11.888296c2.297305 5.051937 9.617213 7.80168 15.835358 4.979493 6.215922-2.825298 8.964332-10.145206 6.141701-16.362906l.012888-.005778-5.651484-12.408734c-.751102-1.654201-.893323-1.936864-1.964865-1.449759-1.878198.852878-2.007975 2.980851-1.52087 4.052394l2.399526 5.2826-.779101.353774-7.756792-17.078454c-.486661-1.071986-1.75109-1.546647-2.823521-1.059542-1.071986.487105-1.546647 1.751534-1.059542 2.82352l6.442586 14.184712-.779101.353773-3.274626-7.210132c-.485772-1.071098-1.751533-1.546647-2.82352-1.059542" fill="#3eb0fd" fill-opacity=".4" fill-rule="nonzero" transform="matrix(-1 0 0 1 236.851636 0)"/></g></svg>