<svg height="166" viewBox="0 0 155 166" width="155" xmlns="http://www.w3.org/2000/svg" xmlns:xlink="http://www.w3.org/1999/xlink"><defs><path id="a" d="m.69335938.6796875h33.30664062c11.045695 0 20 8.954305 20 20v32.0839844"/><mask id="b" fill="#fff" height="52.083984" width="53.306641" x="0" y="0"><use xlink:href="#a"/></mask><circle id="c" cx="62" cy="62" r="56"/><mask id="d" fill="#fff" height="112" width="112" x="0" y="0"><use xlink:href="#c"/></mask><mask id="e" fill="#fff"><circle cx="62" cy="62" fill="#fff" fill-rule="evenodd" r="37"/></mask></defs><g fill="none" fill-rule="evenodd"><g transform="translate(83 54)"><use mask="url(#b)" stroke="#b2dffe" stroke-dasharray="1 2" stroke-width="8" xlink:href="#a"/><g stroke="#9ea9fa"><rect height="60" rx="18" stroke-width="4" width="36" x="34" y="50"/><rect height="10" rx="2.5" stroke-width="3" width="5" x="49.5" y="59.5"/></g></g><g transform="translate(-6 -6)"><use mask="url(#d)" stroke="#b2dffe" stroke-dasharray="2 30" stroke-width="22" transform="matrix(.9945219 -.10452846 .10452846 .9945219 -6.141122 6.820407)" xlink:href="#c"/><g stroke="#9ea9fa" stroke-width="4"><circle cx="62" cy="62" r="35"/><ellipse cx="62" cy="62" mask="url(#e)" rx="19" ry="35"/><ellipse cx="62" cy="32" mask="url(#e)" rx="19" ry="35" transform="matrix(0 1 -1 0 94 0)"/><ellipse cx="62" cy="92" mask="url(#e)" rx="19" ry="35" transform="matrix(0 1 -1 0 154 0)"/></g></g></g></svg>