<?xml version="1.0" encoding="UTF-8"?>
<svg width="24px" height="24px" viewBox="0 0 24 24" version="1.1" xmlns="http://www.w3.org/2000/svg" xmlns:xlink="http://www.w3.org/1999/xlink">
    <!-- Generator: Sketch 51.3 (57544) - http://www.bohemiancoding.com/sketch -->
    <title>github</title>
    <desc>Created with Sketch.</desc>
    <defs></defs>
    <g id="Sign-In/Up" stroke="none" stroke-width="1" fill="none" fill-rule="evenodd">
        <g id="sign-in-copy" transform="translate(-604.000000, -624.000000)" fill="#FFFFFF" fill-rule="nonzero">
            <g id="Group-5" transform="translate(40.000000, 12.000000)">
                <g id="Group-2" transform="translate(520.000000, 110.000000)">
                    <g id="Group-6" transform="translate(0.000000, 228.000000)">
                        <g id="Group-3" transform="translate(24.000000, 254.000000)">
                            <g id="Group-4">
                                <path d="M42.3902806,25.9765498 C41.3172073,24.137965 39.8616519,22.6823549 38.0232313,21.609391 C36.1845371,20.5363725 34.1772311,20 31.9998905,20 C29.8228236,20 27.8148609,20.5365366 25.9765498,21.609391 C24.137965,22.6823001 22.6824643,24.137965 21.609391,25.9765498 C20.5364819,27.8150798 20,29.8227689 20,31.9995622 C20,34.6143848 20.7628846,36.9657003 22.289037,39.0541106 C23.8150251,41.1426851 25.7863759,42.5878973 28.2029251,43.3899112 C28.4842183,43.4421201 28.6924519,43.4053987 28.8278447,43.2806775 C28.9632923,43.1557921 29.030934,42.9993843 29.030934,42.8121109 C29.030934,42.7808622 29.0282525,42.4997332 29.0230535,41.9683956 C29.0176903,41.4370579 29.0151729,40.9735262 29.0151729,40.5780192 L28.6557853,40.6401883 C28.4266462,40.6821633 28.1375819,40.6999494 27.7885923,40.6949146 C27.4397669,40.6900439 27.0776429,40.6534867 26.7027131,40.5855167 C26.327619,40.5181486 25.9787388,40.361905 25.6557989,40.1171143 C25.3330232,39.8723235 25.1038842,39.5519011 24.9684366,39.1563394 L24.812193,38.7967876 C24.7080489,38.5574147 24.5440889,38.2914996 24.3200941,38.0000274 C24.0960994,37.7082815 23.8695872,37.5105006 23.6404482,37.4063565 L23.5310503,37.3280431 C23.4581549,37.2759984 23.3905132,37.2132273 23.327961,37.1403866 C23.2654636,37.0675459 23.2186726,36.9946505 23.1874239,36.9216456 C23.1561205,36.848586 23.1820607,36.7886607 23.2655183,36.7416508 C23.3489759,36.6946409 23.4998016,36.6718201 23.7186521,36.6718201 L24.0310298,36.7185016 C24.2393728,36.7602578 24.497079,36.884979 24.8044766,37.0934315 C25.1117101,37.3017198 25.3642719,37.5725055 25.562217,37.9056792 C25.8019182,38.3328727 26.0907088,38.6583848 26.4294099,38.8823795 C26.7678374,39.1063742 27.1090558,39.2181801 27.452737,39.2181801 C27.7964182,39.2181801 28.0932536,39.1921304 28.3433528,39.1403046 C28.5931784,39.0882051 28.8275711,39.0098918 29.0464216,38.9058024 C29.1401677,38.2076042 29.3954112,37.6712318 29.8119331,37.2963019 C29.2182622,37.2339139 28.6845166,37.1399488 28.2104226,37.0150087 C27.7366023,36.8899044 27.2469661,36.6868698 26.7418424,36.4053577 C26.236445,36.1242287 25.8171868,35.7751296 25.4839584,35.3586625 C25.1506752,34.9419764 24.8771531,34.3949323 24.6637753,33.7180227 C24.450288,33.0408395 24.343517,32.2596763 24.343517,31.3743142 C24.343517,30.1136939 24.7550588,29.040949 25.5779781,28.1554774 C25.1924861,27.2077274 25.2288791,26.145271 25.6872666,24.9682177 C25.9893557,24.8743621 26.4373452,24.9447948 27.0310161,25.1790781 C27.6247965,25.4134709 28.0595422,25.6142617 28.3356911,25.7807391 C28.61184,25.9471618 28.8330985,26.0881914 28.9997948,26.2025694 C29.9687239,25.9318384 30.9686281,25.7964455 31.9997811,25.7964455 C33.030934,25.7964455 34.0310572,25.9318384 35.000041,26.2025694 L35.5937667,25.827749 C35.9997811,25.5776498 36.4792382,25.348456 37.0309888,25.140113 C37.5830677,24.9318794 38.0052264,24.8745263 38.297027,24.9683819 C38.7655936,26.1454899 38.8073497,27.2078915 38.4217482,28.1556416 C39.2446129,29.0411131 39.6563188,30.1141317 39.6563188,31.3744784 C39.6563188,32.2598405 39.5491647,33.0434664 39.3360058,33.7258486 C39.1225732,34.4083403 38.846698,34.9548371 38.5082705,35.3664884 C38.16946,35.7780849 37.7475202,36.1244476 37.2423965,36.4055219 C36.7371633,36.6868151 36.2473629,36.8898496 35.7735426,37.014954 C35.2995034,37.1400583 34.7657578,37.2340781 34.1720869,37.2965755 C34.7135489,37.7651421 34.9843346,38.504768 34.9843346,39.515125 L34.9843346,42.8116731 C34.9843346,42.9989465 35.0494589,43.1552996 35.1798169,43.2802397 C35.3100108,43.4049609 35.5156175,43.4416823 35.7969107,43.3894187 C38.2137883,42.5875142 40.1851391,41.1422473 41.7110725,39.0536728 C43.2368417,36.9652625 44,34.613947 44,31.9991244 C43.9994527,29.8226047 43.4626972,27.8150798 42.3902806,25.9765498 Z" id="github"></path>
                            </g>
                        </g>
                    </g>
                </g>
            </g>
        </g>
    </g>
</svg>