
<svg width="69px" height="167px" viewBox="0 0 69 167" version="1.1" xmlns="http://www.w3.org/2000/svg" xmlns:xlink="http://www.w3.org/1999/xlink">
    <defs>
        <ellipse id="path-1" cx="31.5" cy="31.7591815" rx="31.5" ry="31.7591815"></ellipse>
        <ellipse id="path-2" cx="30.5" cy="30.5561822" rx="30.5" ry="30.5561822"></ellipse>
    </defs>
    <g id="Import-Marketing-Page" stroke="none" stroke-width="1" fill="none" fill-rule="evenodd">
        <g id="Medium-Import-Landing-v3" transform="translate(-361.000000, -1394.000000)">
            <g id="how-it-works" transform="translate(231.000000, 1005.000000)">
                <g id="01-import" transform="translate(0.000000, 392.000000)">
                    <g id="import-art" transform="translate(133.000000, 0.000000)">
                        <g id="Group-9" transform="translate(0.000000, 97.000000)">
                            <g id="Oval-Copy-2">
                                <ellipse stroke-opacity="0.4" stroke="#3EB0FD" stroke-width="3" fill="#FFFFFF" fill-rule="evenodd" cx="31.5" cy="31.7591815" rx="33" ry="33.2591815"></ellipse>
                                <ellipse stroke="#FFFFFF" stroke-width="2" cx="31.5" cy="31.7591815" rx="32.5" ry="32.7591815"></ellipse>
                            </g>
                            <path d="M3.79700482,16.6299213 L59.2029952,16.6299213 C61.6245959,21.1278429 63,26.2815691 63,31.7591815 C63,49.2992931 48.8969696,63.5183629 31.5,63.5183629 C14.1030304,63.5183629 0,49.2992931 0,31.7591815 C0,26.2815691 1.37540412,21.1278429 3.79700768,16.629916 Z" id="Combined-Shape" fill="#9EA9FA"></path>
                            <path d="M40.8177616,33.2751301 L31.3660646,38.5800951 L21.725711,33.2751301 C21.3672634,33.0659738 20.8956218,33.2180875 20.7069652,33.5793575 C20.4994429,33.9406275 20.6503682,34.4159828 21.0088158,34.6061249 L31.007617,40.1202462 C31.234005,40.2533457 31.5169899,40.2533457 31.7433779,40.1202462 L41.5535225,34.6061249 C41.9119701,34.3969686 42.0440297,33.9406275 41.8365074,33.5793575 C41.6289851,33.1990733 41.1762092,33.0659738 40.8177616,33.2751301 Z M22.895382,29.7575011 L31.3660646,24.9278914 L40.798896,30.4229985 C41.1573436,30.6321548 41.6289851,30.4990553 41.8365074,30.1377853 C42.0440297,29.7765153 41.9119701,29.30116 41.5535225,29.0920037 L31.7433779,23.3877403 C31.5169899,23.2546408 31.234005,23.2546408 30.9887513,23.3877403 L20.9899501,29.0920037 C20.4805772,29.3772168 20.4805772,30.1187711 20.9899501,30.4229985 L30.9887513,36.1272618 C31.3471989,36.3364182 31.8188405,36.2033187 32.0263628,35.8420487 C32.2338851,35.4807786 32.1018254,35.0054234 31.7433779,34.796267 L22.895382,29.7575011 Z M19.0090555,33.7504854 L19.0090555,29.9476432 C18.9335929,29.0729895 19.3297718,28.1793215 20.1975923,27.684952 L30.1963935,21.9806887 C30.9321544,21.562376 31.8188405,21.562376 32.5357357,21.9997029 L42.3458803,27.7039662 C43.1571038,28.1793215 43.591014,29.0729895 43.5155514,29.9476432 L43.5155514,33.7504854 C43.591014,34.6441534 43.1382381,35.5568355 42.308149,36.0131766 L32.4980044,41.5272978 C31.7811092,41.9265963 30.9321544,41.9265963 30.2152592,41.5272978 L20.2164579,36.0131766 C19.3863688,35.5568355 18.9524585,34.6631676 19.0090555,33.7504854 Z" id="a" fill="#FFFFFF"></path>
                        </g>
                        <g id="Group-8" transform="translate(1.000000, 0.000000)">
                            <g id="Oval">
                                <ellipse stroke-opacity="0.4" stroke="#3EB0FD" stroke-width="3" fill="#FFFFFF" fill-rule="evenodd" cx="30.5" cy="30.5561822" rx="32" ry="32.0561822"></ellipse>
                                <ellipse stroke="#FFFFFF" stroke-width="2" cx="30.5" cy="30.5561822" rx="31.5" ry="31.5561822"></ellipse>
                            </g>
                            <path d="M0.647814684,36.8976364 L60.3710194,36.8976364 C58.0629555,48.3691562 49.5912413,57.7012392 38.0910409,60.1584466 C33.5766067,61.1230299 31.0462598,62.255834 30.5,63.5568589 C29.8800716,62.2691625 27.5704917,61.190366 23.5712602,60.3204694 C11.9732715,57.797722 3.05879287,48.5230236 0.647814684,36.8976364 Z" id="Combined-Shape" fill="#9EA9FA"></path>
                        </g>
                        <path d="M31.2,70.4731183 C30.6477153,70.4731183 30.2,70.025403 30.2,69.4731183 C30.2,68.9208335 30.6477153,68.4731183 31.2,68.4731183 C31.7522847,68.4731183 32.2,68.9208335 32.2,69.4731183 C32.2,70.025403 31.7522847,70.4731183 31.2,70.4731183 Z M31.2,98 C30.6477153,98 30.2,97.5522847 30.2,97 C30.2,96.4477153 30.6477153,96 31.2,96 C31.7522847,96 32.2,96.4477153 32.2,97 C32.2,97.5522847 31.7522847,98 31.2,98 Z M31.2,80 C30.6477153,80 30.2,79.5522847 30.2,79 C30.2,78.4477153 30.6477153,78 31.2,78 C31.7522847,78 32.2,78.4477153 32.2,79 C32.2,79.5522847 31.7522847,80 31.2,80 Z M31.2,89 C30.6477153,89 30.2,88.5522847 30.2,88 C30.2,87.4477153 30.6477153,87 31.2,87 C31.7522847,87 32.2,87.4477153 32.2,88 C32.2,88.5522847 31.7522847,89 31.2,89 Z M31.2,107 C30.6477153,107 30.2,106.552285 30.2,106 C30.2,105.447715 30.6477153,105 31.2,105 C31.7522847,105 32.2,105.447715 32.2,106 C32.2,106.552285 31.7522847,107 31.2,107 Z M31.2,115 C30.6477153,115 30.2,114.552285 30.2,114 C30.2,113.447715 30.6477153,113 31.2,113 C31.7522847,113 32.2,113.447715 32.2,114 C32.2,114.552285 31.7522847,115 31.2,115 Z" id="Combined-Shape" fill="#9EA9FA"></path>
                    </g>
                </g>
            </g>
        </g>
    </g>
</svg>