<svg height="167" viewBox="0 0 69 167" width="69" xmlns="http://www.w3.org/2000/svg"><g fill="none" fill-rule="evenodd" transform="translate(3 3)"><g transform="translate(0 97)"><ellipse cx="31.5" cy="31.759182" fill="#fff" fill-rule="evenodd" rx="33" ry="33.259181" stroke="#3eb0fd" stroke-opacity=".4" stroke-width="3"/><ellipse cx="31.5" cy="31.759182" rx="32.5" ry="32.759181" stroke="#fff" stroke-width="2"/><path d="m3.79700482 16.6299213h55.40599038c2.4216007 4.4979216 3.7970048 9.6516478 3.7970048 15.1292602 0 17.5401116-14.1030304 31.7591814-31.5 31.7591814s-31.5-14.2190698-31.5-31.7591814c0-5.4776124 1.37540412-10.6313386 3.79700768-15.1292655z" fill="#9ea9fa"/><path d="m40.8177616 33.2751301-9.451697 5.304965-9.6403536-5.304965c-.3584476-.2091563-.8300892-.0570426-1.0187458.3042274-.2075223.36127-.056597.8366253.3018506 1.0267674l9.9988012 5.5141213c.226388.1330995.5093729.1330995.7357609 0l9.8101446-5.5141213c.3584476-.2091563.4905072-.6654974.2829849-1.0267674-.2075223-.3802842-.6602982-.5133837-1.0187458-.3042274zm-17.9223796-3.517629 8.4706826-4.8296097 9.4328314 5.4951071c.3584476.2091563.8300891.0760568 1.0376114-.2852132s.0754627-.8366253-.2829849-1.0457816l-9.8101446-5.7042634c-.226388-.1330995-.5093729-.1330995-.7546266 0l-9.9988012 5.7042634c-.5093729.2852131-.5093729 1.0267674 0 1.3309948l9.9988012 5.7042633c.3584476.2091564.8300892.0760569 1.0376115-.2852131.2075223-.3612701.0754626-.8366253-.2829849-1.0457817zm-3.8863265 3.9929843v-3.8028422c-.0754626-.8746537.3207163-1.7683217 1.1885368-2.2626912l9.9988012-5.7042633c.7357609-.4183127 1.622447-.4183127 2.3393422.0190142l9.8101446 5.7042633c.8112235.4753553 1.2451337 1.3690233 1.1696711 2.243677v3.8028422c.0754626.893668-.3773133 1.8063501-1.2074024 2.2626912l-9.8101446 5.5141212c-.7168952.3992985-1.56585.3992985-2.2827452 0l-9.9988013-5.5141212c-.8300891-.4563411-1.2639994-1.350009-1.2074024-2.2626912z" fill="#fff"/></g><g transform="translate(1)"><ellipse cx="30.5" cy="30.556182" fill="#fff" fill-rule="evenodd" rx="32" ry="32.056182" stroke="#3eb0fd" stroke-opacity=".4" stroke-width="3"/><ellipse cx="30.5" cy="30.556182" rx="31.5" ry="31.556182" stroke="#fff" stroke-width="2"/><path d="m.64781468 36.8976364h59.72320472c-2.3080639 11.4715198-10.7797781 20.8036028-22.2799785 23.2608102-4.5144342.9645833-7.0447811 2.0973874-7.5910409 3.3984123-.6199284-1.2876964-2.9295083-2.3664929-6.9287398-3.2363895-11.5979887-2.5227474-20.51246733-11.7974458-22.92344552-23.422833z" fill="#9ea9fa"/></g><path d="m31.2 70.4731183c-.5522847 0-1-.4477153-1-1 0-.5522848.4477153-1 1-1s1 .4477152 1 1c0 .5522847-.4477153 1-1 1zm0 27.5268817c-.5522847 0-1-.4477153-1-1s.4477153-1 1-1 1 .4477153 1 1-.4477153 1-1 1zm0-18c-.5522847 0-1-.4477153-1-1s.4477153-1 1-1 1 .4477153 1 1-.4477153 1-1 1zm0 9c-.5522847 0-1-.4477153-1-1s.4477153-1 1-1 1 .4477153 1 1-.4477153 1-1 1zm0 18c-.5522847 0-1-.447715-1-1s.4477153-1 1-1 1 .447715 1 1-.4477153 1-1 1zm0 8c-.5522847 0-1-.447715-1-1s.4477153-1 1-1 1 .447715 1 1-.4477153 1-1 1z" fill="#9ea9fa"/></g></svg>