<?xml version="1.0" encoding="utf-8"?>
<!-- Generator: Adobe Illustrator 21.0.2, SVG Export Plug-In . SVG Version: 6.00 Build 0)  -->
<svg version="1.1" id="Layer_1" xmlns="http://www.w3.org/2000/svg" xmlns:xlink="http://www.w3.org/1999/xlink" x="0px" y="0px"
	 viewBox="0 0 691.8 106" style="enable-background:new 0 0 691.8 106;" xml:space="preserve">
<style type="text/css">
	.st0{fill:#031E34;}
	.st1{fill:#3EB2FD;}
	.st2{clip-path:url(#SVGID_2_);}
	.st3{clip-path:url(#SVGID_4_);fill:#3EB0FD;}
	.st4{fill:#FFFFFF;}
	.st5{clip-path:url(#SVGID_6_);}
	.st6{clip-path:url(#SVGID_8_);fill:#3EB0FD;}
</style>
<g>
	<path class="st0" d="M185.4,59.6c-2.7-0.8-7.9-2.1-12.7-5.5c-6.7-4.7-10.4-11.5-10.8-19.9c-0.4-7.1,1.8-13.2,6.1-18
		c6.2-6.8,15.2-8.7,19.5-8.7c12.2,0,19,4.7,25.1,8.8l2.7,1.9l-8.7,15l-3-2c-5.4-3.7-8.8-6-16.1-6c-1.1,0-5.3,0.9-7.4,3.3
		c-0.7,0.8-1.6,2.1-1.4,5c0.1,4.5,3.1,7.1,10.8,9.1c1,0.3,1.7,0.5,2.4,0.8c8,2.9,14.2,6.8,18.5,11.7c4.3,5,6.6,11,6.6,17.3
		c0,6.2-2.5,12.6-6.7,17.5c-4.9,5.8-11.7,9.1-19.2,9.1c-3.7,0-8.7-0.3-14.7-2.1c-7.5-2.5-14.2-6.9-20-13.4l12.2-12.1
		c8.8,10,18.8,10,22.5,10c6.9,0,9.2-6.7,9.2-8.9c0-4.8-5.1-9.2-13.9-12.3l-0.4-0.1L185.4,59.6z"/>
	<path class="st0" d="M289.1,8.6v17.6h-23.2V97h-16.7V26.3h-23.3V8.6H289.1z"/>
	<path class="st0" d="M346.8,80.6h-34.7L304.3,97h-18.8l42.7-88.3h4.9L372.7,97h-18.5L346.8,80.6z M338.9,63l-8.7-19.7L320.8,63
		H338.9z"/>
	<path class="st0" d="M434.8,30.1C418.6,19,394.1,29.3,394.1,53c0,24.8,25.9,34.8,41.7,22.2l10.8,13c-7.5,6.6-17.2,10.6-27.7,10.6
		c-23.9,0-43.4-20.5-43.4-45.7c0-25.2,19.5-45.7,43.4-45.7c10,0,19.4,3.7,26.8,9.7L434.8,30.1z"/>
	<path class="st0" d="M481.8,56.5l-6.5,6.9v33.4h-16.7V8.6h16.7v28.5l24.5-28.5h22.6l-29.3,34.5l30,53.7h-20L481.8,56.5z"/>
	<path class="st0" d="M561,81.9c5.6,0,10.3-4.7,10.3-10.6c0-5.9-4.7-10.7-10.3-10.7h-27.4V8.6h22.8c13.5,0,24.5,11.6,24.5,25.8
		c0,5.4-1.6,10.3-4.3,14.5c6.1,4.9,9.9,12.6,9.9,21.2c0,14.9-11.4,26.7-25.3,26.7h-6v-15H561z M555.7,43.5c4.7,0,9.7-4,9.7-10.2
		s-5-10-9.7-10h-7.3v20.2H555.7z"/>
	<path class="st0" d="M601.1,96.9V8.6h16.7v88.2H601.1z"/>
	<path class="st0" d="M691.8,8.6v17.6h-23.2V97h-16.7V26.3h-23.3V8.6H691.8z"/>
</g>
<path class="st1" d="M549.1,96.9h-15.5v-15h15.5V96.9z"/>
<g>
	<defs>
		<path id="SVGID_1_" d="M115.6,61L65.5,88.9L14.4,61c-1.9-1.1-4.4-0.3-5.4,1.6c-1.1,1.9-0.3,4.4,1.6,5.4l53,29
			c1.2,0.7,2.7,0.7,3.9,0l52-29c1.9-1.1,2.6-3.5,1.5-5.4C119.9,60.6,117.5,59.9,115.6,61z M20.6,42.5l44.9-25.4l50,28.9
			c1.9,1.1,4.4,0.4,5.5-1.5c1.1-1.9,0.4-4.4-1.5-5.5l-52-30c-1.2-0.7-2.7-0.7-4,0l-53,30c-2.7,1.5-2.7,5.4,0,7l53,30
			c1.9,1.1,4.4,0.4,5.5-1.5c1.1-1.9,0.4-4.4-1.5-5.5L20.6,42.5z M0,63.5L0,63.5l0-20h0c-0.4-4.6,1.7-9.3,6.3-11.9l53-30
			c3.9-2.2,8.6-2.2,12.4,0.1l52,30c4.3,2.5,6.6,7.2,6.2,11.8h0v20h0c0.4,4.7-2,9.5-6.4,11.9l-52,29c-3.8,2.1-8.3,2.1-12.1,0l-53-29
			C2,73-0.3,68.3,0,63.5z"/>
	</defs>
	<clipPath id="SVGID_2_">
		<use xlink:href="#SVGID_1_"  style="overflow:visible;"/>
	</clipPath>
	<g class="st2">
		<defs>
			<rect id="SVGID_3_" x="-53.5" y="-294.5" width="720" height="512"/>
		</defs>
		<clipPath id="SVGID_4_">
			<use xlink:href="#SVGID_3_"  style="overflow:visible;"/>
		</clipPath>
		<rect x="-2.5" y="-2.5" class="st3" width="135" height="111"/>
	</g>
</g>
<g>
	<defs>
		<path id="SVGID_5_" d="M115.6,190l-50.1,27.9L14.4,190c-1.9-1.1-4.4-0.3-5.4,1.6c-1.1,1.9-0.3,4.4,1.6,5.4l53,29
			c1.2,0.7,2.7,0.7,3.9,0l52-29c1.9-1.1,2.6-3.5,1.5-5.4C119.9,189.6,117.5,188.9,115.6,190z M20.6,171.5l44.9-25.4l50,28.9
			c1.9,1.1,4.4,0.4,5.5-1.5c1.1-1.9,0.4-4.4-1.5-5.5l-52-30c-1.2-0.7-2.7-0.7-4,0l-53,30c-2.7,1.5-2.7,5.4,0,7l53,30
			c1.9,1.1,4.4,0.4,5.5-1.5c1.1-1.9,0.4-4.4-1.5-5.5L20.6,171.5z M0,192.5L0,192.5l0-20h0c-0.4-4.6,1.7-9.3,6.3-11.9l53-30
			c3.9-2.2,8.6-2.2,12.4,0.1l52,30c4.3,2.5,6.6,7.2,6.2,11.8h0v20h0c0.4,4.7-2,9.5-6.4,11.9l-52,29c-3.8,2.1-8.3,2.1-12.1,0l-53-29
			C2,202-0.3,197.3,0,192.5z"/>
	</defs>
	<clipPath id="SVGID_6_">
		<use xlink:href="#SVGID_5_"  style="overflow:visible;"/>
	</clipPath>
	<g class="st5">
		<defs>
			<rect id="SVGID_7_" x="-53.5" y="-165.5" width="720" height="512"/>
		</defs>
		<clipPath id="SVGID_8_">
			<use xlink:href="#SVGID_7_"  style="overflow:visible;"/>
		</clipPath>
	</g>
</g>
</svg>
