<svg height="222" viewBox="0 0 222 222" width="222" xmlns="http://www.w3.org/2000/svg"><g fill="none" fill-rule="evenodd"><path d="m0 0h222v222h-222z" fill="#3daefb" fill-rule="nonzero"/><g transform="translate(22 -51)"><circle cx="80.5" cy="135.5" fill="#011d37" r="44.5"/><circle cx="94.5" cy="189.5" fill="#fff" r="44.5"/><g transform="matrix(.92050485 .39073113 -.39073113 .92050485 126.213071 .467516)"><path d="m0 0h57v322h-57z" fill="#011d37"/><path d="m29 0h28.3v322h-28.3z" fill="#fff"/><g fill="#3daefb"><path d="m3 0h3v322h-3z"/><path d="m9 0h3v322h-3z"/><path d="m15 0h3v322h-3z"/><path d="m21 0h3v322h-3z"/><path d="m27 0h3v322h-3z"/><path d="m33 0h3v322h-3z"/><path d="m39 0h3v322h-3z"/><path d="m45 0h3v322h-3z"/><path d="m51 0h3v322h-3z"/></g></g></g></g></svg>