<svg height="40" viewBox="0 0 34 40" width="34" xmlns="http://www.w3.org/2000/svg"><path d="m67.9233177 68.7480438c.1877934-.3755868.3755868-.8137715.3755868-1.2519562 0-1.3771518-1.1267605-2.5039123-2.5039123-2.5039123h-.0625978c-.3129891-2.1283255-2.1283255-3.7558686-4.3192489-3.7558686-1.8153364 0-3.3802817 1.1267606-4.0062597 2.6917058-.3129891-.1251956-.6259781-.1877934-1.001565-.1877934-1.0015649 0-1.9405321.5007825-2.5039123 1.2519562-.5633803-.7511737-1.5023475-1.2519562-2.5039124-1.2519562-.3129891 0-.6885759.0625978-1.001565.1877934-.625978-1.5649452-2.1909233-2.6917058-4.0062597-2.6917058-2.1909234 0-4.0062598 1.6275431-4.3192489 3.7558686h-.0625978c-1.3771518 0-2.5039123 1.1267605-2.5039123 2.5039123 0 .4381847.1251956.8763694.3755868 1.2519562h-2.8794992v1.2519562h33.8028169v-1.2519562zm-25.915493 0c-.6885759 0-1.2519562-.5633803-1.2519562-1.2519562s.5633803-1.2519561 1.2519562-1.2519561h.0625978c.0625978.5633802.2503913 1.0641627.5633803 1.5649452l1.0641628-.6259781c-.3129891-.5007825-.4381847-1.001565-.4381847-1.5649452 0-1.7527387 1.3771518-3.1298905 3.1298905-3.1298905 1.7527386 0 3.1298904 1.3771518 3.1298904 3.1298905h1.2519562c0-.1877935 0-.3129891 0-.5007825.1877934-.0625978.4381847-.1251956.6259781-.1251956 1.0641627 0 1.8779343.8137715 1.8779343 1.8779342v.6259781h1.2519561v-.6259781c0-1.0641627.8137716-1.8779342 1.8779343-1.8779342.2503913 0 .4381847.0625978.6259781.1251956v.5007825h1.2519562c0-1.7527387 1.3771518-3.1298905 3.1298904-3.1298905 1.7527387 0 3.1298905 1.3771518 3.1298905 3.1298905 0 .5633802-.1251956 1.0641627-.4381847 1.5649452l1.0641628.6259781c.312989-.5007825.4381846-1.001565.5633803-1.5649452h.0625978c.6885759 0 1.2519562.5633802 1.2519562 1.2519561s-.5633803 1.2519562-1.2519562 1.2519562zm12.5195618-10.6416275h-1.2519561v-1.2519562h1.2519561zm0 2.5039123h-1.2519561v-1.2519561h1.2519561zm-1.2519561 1.2519562h1.2519561v1.2519562h-1.2519561zm-3.6932708-8.1377152c.1251956.4381847.3129891.8137716.6259781 1.1893584.5007825.5007825 1.1267606.7511737 1.7527387.7511737h3.7558685c.6885759 0 1.314554-.2503912 1.7527387-.7511737.312989-.312989.5633802-.7511737.6259781-1.1893584l2.3787167 1.8779343h2.1909233v-7.0735524l-4.3818466-6.2597809v-5.0078247l-4.3818466-7.2613459-4.3818467 7.3239437v5.0078247l-4.3818466 6.2597809v7.0109546h2.1283255zm4.9452269-4.3818466h-1.2519561v-10.6416275c0-.3755869.2503912-.6259781.6259781-.6259781.3755868 0 .625978.2503912.625978.6259781zm2.5039124 1.2519562v1.2519562h-6.2597809v-1.2519562zm-.3755868 3.3802817c-.2503913.2503912-.5633803.3755868-.8763694.3755868h-3.7558685c-.3129891 0-.6259781-.1251956-.8763693-.3755868-.2503913-.2503913-.3755869-.5633803-.3755869-.8763694h6.2597809c0 .3129891-.1251956.6259781-.3755868.8763694zm4.7574334-5.0704226v5.4460094h-.3755868l-2.7543036-2.1909233v-7.6995305zm-4.3818466.4381847h-1.2519562v-10.6416275c0-.3755869.2503913-.6259781.6259781-.6259781.3755869 0 .6259781.2503912.6259781.6259781zm-.5007825-12.5195618c-.0625978 0-.1251956 0-.1251956 0-.5007825 0-.9389671.1877934-1.2519562.5007825-.312989-.3129891-.7511737-.5007825-1.2519561-.5007825-.5007825 0-.9389672.1877934-1.2519562.5007825-.3129891-.3129891-.7511737-.5007825-1.2519562-.5007825-.0625978 0-.1251956 0-.1251956 0l2.629108-4.4444445zm-5.1330203 1.2519562c.3755868 0 .6259781.2503912.6259781.6259781v10.6416275h-1.2519562v-10.6416275c0-.3755869.2503912-.6259781.6259781-.6259781zm-5.0078247 16.2754303v-5.4460094l3.1298904-4.4444444v7.6995305l-2.7543036 2.1909233z" fill="#fff" transform="translate(-37 -30)"/></svg>