<svg height="11" viewBox="0 0 17 11" width="17" xmlns="http://www.w3.org/2000/svg"><path d="m1340.74094 9.58828065-4.22359-4.20663069c-.50887-.50886661-1.32306-.50886661-1.81496 0-.50887.50886662-.50887 1.3230532 0 1.8149576l2.0185 2.01850424h-10.43176c-.71241 0-1.28913.57671549-1.28913 1.2891288 0 .7124132.57672 1.2891287 1.28913 1.2891287h10.43176l-2.0185 2.0185043c-.50887.5088666-.50887 1.3230532 0 1.8149575.25443.2544334.57672.3731689.91596.3731689.32228 0 .66153-.1187355.91596-.3731689l4.20663-4.2066306c.23747-.2374711.37317-.5767155.37317-.9159599 0-.3392445-.1357-.66152664-.37317-.91595995z" fill="#ffffff" transform="translate(-1325 -5)"/></svg>
