<svg height="35" viewBox="0 0 34 35" width="34" xmlns="http://www.w3.org/2000/svg"><path d="m70.3419355 39.7046477c-.383871-.4407796-.9322581-.6611694-1.5354839-.6611694h-2.7419355v1.101949h2.7419355c.2741936 0 .5483871.1101949.7677419.3305847.2193549.2203898.3290323.4958771.3290323.7713643v19.284108h-31.8064516v-19.284108c0-.2754872.1096774-.5509745.3290323-.7713643.2193548-.2203898.4935483-.3305847.7677419-.3305847h2.7419355v-1.101949h-2.7419355c-.6032258 0-1.1516129.2203898-1.5354839.6611694-.4387097.3856821-.6580645.9366566-.6580645 1.5427286v19.284108 1.101949 2.203898c0 .606072.2193548 1.1570465.6580645 1.5427287.383871.4407796.9322581.6611694 1.5354839.6611694h10.3645161l-.4387097 3.3058471h-.6032258c-.4387096 0-.8774193.1652923-1.1516129.495877-.2741935.3305847-.4935484.7162669-.4935484 1.1570465h1.0967742c0-.1652924.0548387-.2754873.1645162-.3856822.1096774-.1101949.2193548-.1652923.3838709-.1652923h10.967742c.1645161 0 .2741935.0550974.3838709.1652923.1096775.1101949.1645162.2203898.1645162.3856822h1.0967742c0-.4407796-.1645162-.8815592-.4935484-1.1570465-.3290323-.2754872-.7129033-.495877-1.1516129-.495877h-.6032258l-.4387097-3.3058471h10.3645161c.6032258 0 1.1516129-.2203898 1.5354839-.6611694s.6580645-.9366567.6580645-1.5427287v-2.203898-1.101949-19.284108c0-.606072-.2193548-1.1570465-.6580645-1.5427286zm-12.9419355 29.7736132h-7.5555556l.4380033-3.0434783h6.6795491zm12.0888889-5.5797102c0 .2536232-.1094253.5072464-.3282759.710145-.2188505.2028985-.4924138.3043478-.765977.3043478h-29.5448276c-.2735632 0-.5471264-.1014493-.765977-.3043478-.2188506-.2028986-.3282758-.4565218-.3282758-.710145v-2.0289855h31.7333333zm-14.3555556-.5072464h-3.0222222v-.7608695h3.0222222zm-14.7753086-4.9014155v-15.9074823h1.637037v-1.0970678h-2.728395v18.1016178h29.4666666v-18.1016178h-2.728395v1.0970678h1.637037v15.9074823h-2.7283951v-18.8695652l-3.6014814-3.6203236h-18.225679v22.4898888zm7.9753086-.7705212h1.0074074v-1.1067194h-1.0074074v-1.1067193h1.0074074v-1.1067194h-1.0074074v-1.1067194h1.0074074v-1.1067193h-1.0074074v-1.1067194h1.0074074v-1.1067194h-1.0074074v-3.3201581h3.0222223v12.1739131h-3.0222223zm7.5555556-10.3063241.7555555 1.1080625v10.304981h-.7555555zm3.0222222 11.4130435h-.7555555v-10.304981l.7555555-1.1080625zm-.7555555-12.1739131-1.5111112-1.4016018 1.5111112-2.402746 1.5111111 2.402746zm3.7777777-9.1304348 1.5111111 1.5217392h-1.5111111zm-18.1333333-.7608695h16.3703704v3.2775919h3.274074v18.0267559h-3.274074v-12.5641026c0-.109253 0-.1638796-.0545679-.2731326l-2.1827161-3.8238573c-.2182716-.3277592-.7639506-.3277592-.9276543 0l-2.1827161 3.8238573c-.1091358.109253-.1091358.1638796-.1091358.2731326v12.5641026h-2.182716v-13.1103679h-5.4567901v13.1103679h-3.2740741zm6.8 10.6521739v.7608695h-.7555556v-.7608695zm9.0666667-7.6086957h-14.3555556v-.7608695h14.3555556zm-6.8 2.2826087h-7.5555556v-.7608695h7.5555556z" fill="#fff" transform="translate(-37 -36)"/></svg>