<svg height="36" viewBox="0 0 36 36" width="36" xmlns="http://www.w3.org/2000/svg"><path d="m37.1875 52.8275862h1.1875v1.1724138h-2.375v-17h19v12.8965517h-1.1875v-11.7241379h-16.625zm17.6400862 15.9849138h-14.6551724v-16.625h11.7241379v-1.1875h-12.8965517v19h17v-2.375h-1.1724138zm14.7974138-18.8125v1.1724138h1.1875v14.6551724h-16.625v-11.7241379h-1.1875v12.8965517h19v-17zm-16.4525862-14.8125h14.6551724v16.625h-11.7241379v1.1875h12.8965517v-19h-17v2.375h1.1724138zm7.4942529 23.1501623 2.0416666 2.0454546 4.375-4.3831169 2.9166667 2.9220779v6.0779221h-14v-1.987013zm.1133333 4.1340358 1.08-1.0188679-1.26-1.1886793-3.6 3.3962265v.3396226h12v-4.3018868l-1.8-1.6981132-5.58 5.2641509zm1.72-4.4716981c-.85 0-1.5-.65-1.5-1.5s.65-1.5 1.5-1.5 1.5.65 1.5 1.5-.65 1.5-1.5 1.5zm0-1c.3 0 .5-.2.5-.5s-.2-.5-.5-.5-.5.2-.5.5.2.5.5.5zm-14.9285714-1v.5555556c0 .6111111.5142857 1.1111111 1.1428571 1.1111111 1.2571429 0 2.2857143 1 2.2857143 2.2222222h-1.1428571c0-.6111111-.5142858-1.1111111-1.1428572-1.1111111-.4 0-.8-.1111111-1.1428571-.3333334v5.3333334c0 1.2222222-1.0285715 2.2222222-2.2857143 2.2222222-1.2571429 0-2.2857143-1-2.2857143-2.2222222s1.0285714-2.2222222 2.2857143-2.2222222c.4 0 .8.1111111 1.1428571.3333333v-5.8888889zm-1.5714286 8c0-.55-.45-1-1-1s-1 .45-1 1 .45 1 1 1 1-.45 1-1zm18-21-4.8 3h-1.2v-6h1.2545455zm-25-1v1h1v-1zm3 0v1h1v-1zm2 0v1h1v-1zm7 2h-12v1h12zm0 2h-12v1h12zm-12 3h9v-1h-9zm14 3h1v-1h-1z" fill="#fff" transform="translate(-36 -34)"/></svg>