<svg height="114" viewBox="0 0 144 114" width="144" xmlns="http://www.w3.org/2000/svg" xmlns:xlink="http://www.w3.org/1999/xlink"><defs><path id="a" d="m101.58933 0c56.480115 0 51.721844 60.9657451 13.996634 92.9490392-37.7252095 31.9832938-132.0495991 30.8244708-113.09769546-26.5473795 18.95190366-57.37185002 42.62094676-66.4016597 99.10106146-66.4016597z"/><mask id="b" fill="#fff"><use fill="#fff" fill-rule="evenodd" xlink:href="#a"/></mask></defs><g fill="none" fill-rule="evenodd"><use fill="#20c778" opacity=".9" xlink:href="#a"/><g fill="#fff" fill-rule="nonzero"><path d="m87.7004608 26h-36.4900683c-2.3157159 0-4.2103925 1.8798665-4.2103925 4.2658509v34.1268076c0 2.3859844 1.8245034 4.7345269 4.1402193 4.7345269h11.7189258c.7017321 0 1.2631177.5061179 1.4034641 1.1568409 1.1227714 6.2903226.3508661 8.5691439-.4210392 11.0274309-.2105196.650723-.350866 1.301446-.5613857 1.9521691-.1403464.5061179-.1403464.9399332-.1403464 1.3737486 0 3.5428253 2.8069283 6.3626251 6.3155888 6.3626251 3.4384872 0 6.1752423-2.8197998 6.1752423-6.3626251 0-.5061179-.0701732-1.0122359-.1403464-1.4460512-.1403464-.650723-.3508661-1.3014461-.4912125-1.8798665-.7017321-2.458287-1.6139838-4.8094109-.4912124-11.0997335.1403464-.650723.701732-1.1568409 1.4034641-1.1568409h11.789099c2.3157159 0 4.2805657-2.3485424 4.2805657-4.7345268v-34.0545051c-.0701732-2.3859844-1.9648498-4.2658509-4.2805657-4.2658509zm-36.4900683 2.8197998h36.4900683c.7719053 0 1.4034642.8956171 1.4034642 1.9902602v19.88994h-39.2969967v-19.88994c0-1.0946431.6315589-1.9902602 1.4034642-1.9902602zm37.8935325 24.4802002v2.6h-39.2969967v-2.6zm-1.3508054 11.8239065h-11.789099c-2.035023 0-3.842012 2.2974203-4.1928781 4.3805849-1.2631177 6.8959929-.2806928 10.1284895.5613857 12.7863201.2105196.5746661.350866 1.1493322.4912125 1.7239983.0701732.2154997.0701732.5028328.0701732.7901658 0 2.0113313-1.4736374 3.5198297-3.368314 3.5198297-1.8946767 0-3.5086604-1.5803317-3.5086604-3.5198297 0-.2154998 0-.5028328.0701732-.7901658.1403464-.5746661.2806928-1.1493322.4912124-1.7239983.7719053-2.5859973 1.7543302-5.8903272.5613857-12.7863201-.3508661-2.0113313-2.0525374-4.3087516-4.0875605-4.3087516h-11.789099c-.7719053 0-1.4034642-.6464993-1.4034642-1.4366652l-.0526588-5.2590746h39.2969967l.0526588 5.2590746c0 .7183326-.6315589 1.3648319-1.4034642 1.3648319z" mask="url(#b)"/><path d="m50.0394173 43.5181517-1.7098614-1.9586667c6.3827931-5.5720003 9.0343019-5.9538321 20.6069588-3.3829416 4.8862171 1.0854836 9.9604474 1.1427773 14.0796301.3045397 3.5000649-.7122496 5.7206741-2.0009656 5.8583641-2.9352272l2.5722155.379089c-.7053952 4.7862862-12.3880065 7.1636522-23.0740594 4.7897226-10.8392832-2.4079699-12.6645629-2.1451196-18.3332477 2.8034842z" mask="url(#b)"/></g></g></svg>