<svg height="71" viewBox="0 0 82 71" width="82" xmlns="http://www.w3.org/2000/svg" xmlns:xlink="http://www.w3.org/1999/xlink"><defs><path id="a" d="m26.7038365 6.92175031c25.7387695-12.57080078 29.9814453-6.02099609 47.3369141 3.82958989 16.0517765 9.1106386 2.3820019 46.3097673-18.5449219 57.4111328-7.1344997 3.7847267-21.2253323 1.8971266-31.4960938-3.9233399-40.3969726-22.8930664-23.03466793-44.746582 2.7041016-57.31738279z"/><mask id="b" fill="#fff"><use fill="#fff" fill-rule="evenodd" xlink:href="#a"/></mask></defs><g fill="none" fill-rule="evenodd"><use fill="#20c778" opacity=".9" xlink:href="#a"/><path d="m38.356 47-2.242-6.156h-10.944l-2.242 6.156h-5.548l10.336-26.942h6.08l10.26 26.942zm-7.714-21.128-3.724 10.184h7.448zm15.352 16.036c0-3.344 2.47-5.206 5.586-5.662l4.598-.684c1.064-.152 1.406-.684 1.406-1.33 0-1.33-1.026-2.432-3.154-2.432-2.204 0-3.42 1.406-3.572 3.04l-4.484-.95c.304-2.926 3.002-6.156 8.018-6.156 5.928 0 8.132 3.344 8.132 7.106v9.196c0 .988.114 2.318.228 2.964h-4.636c-.114-.494-.19-1.52-.19-2.242-.95 1.482-2.736 2.774-5.51 2.774-3.99 0-6.422-2.698-6.422-5.624zm7.486 1.862c2.128 0 4.104-1.026 4.104-4.332v-.836l-4.218.646c-1.292.19-2.318.912-2.318 2.356 0 1.102.798 2.166 2.432 2.166z" fill="#fff" mask="url(#b)"/></g></svg>