<svg height="40" viewBox="0 0 46 40" width="46" xmlns="http://www.w3.org/2000/svg"><path d="m48.4 44h-1.4c0-3.85 3.15-7 7-7v1.4c-3.08 0-5.6 2.52-5.6 5.6zm5.6 16h-1v1h1zm-1 3h1v-1h-1zm1-5h-1v1h1zm17.178125-10.1818182c0-.2909091.071875-.5090909.071875-.7272727 0-3.6363636-2.875-6.5454546-6.46875-6.5454546-.43125 0-.8625.0727273-1.365625.1454546-1.4375-4-5.175-6.6909091-9.415625-6.6909091s-7.978125 2.6909091-9.415625 6.6909091c-.503125-.0727273-.934375-.1454546-1.365625-.1454546-3.59375 0-6.46875 2.909091-6.46875 6.5454546 0 .2181818 0 .5090909.071875.7272727-3.30625.3636364-5.821875 3.2-5.821875 6.5454546 0 3.6363636 2.875 6.5454545 6.46875 6.5454545h10.78125c.575 0 1.15.2181818 1.509375.6545455.359375.4363636.646875.9454545.646875 1.5272727v3.6363636h-3.59375c-.2875 0-.575.1454546-.646875.4363637s-.071875.5818181.14375.8l5.75 5.8181818c.14375.1454545.359375.2181818.503125.2181818s.359375-.0727273.503125-.2181818l5.75-5.8181818c.215625-.2181819.2875-.5090909.14375-.8-.071875-.2909091-.359375-.4363637-.646875-.4363637h-3.59375v-1.4545454h-1.4375v2.1818182c0 .4363636.2875.7272727.71875.7272727h2.5875l-4.025 4.0727273-4.025-4.0727273h2.5875c.43125 0 .71875-.2909091.71875-.7272727v-4.3636364c0-.9454546-.359375-1.8909091-1.078125-2.5454546-.646875-.7272727-1.58125-1.090909-2.515625-1.090909h-10.78125c-2.803125 0-5.03125-2.2545455-5.03125-5.0909091 0-2.8363637 2.228125-5.0909091 5.103125-5.0909091h.14375c.215625 0 .43125-.0727273.575-.2909091.14375-.1454546.215625-.4363637.14375-.6545455-.14375-.3636363-.215625-.8-.215625-1.2363636 0-2.8363636 2.228125-5.0909091 5.03125-5.0909091.503125 0 1.078125.0727273 1.58125.2909091.215625.0727273.359375.0727273.575-.0727273.14375-.0727273.2875-.2181818.359375-.4363636 1.00625-3.7090909 4.45625-6.3272727 8.265625-6.3272727s7.259375 2.6181818 8.265625 6.3272727c.071875.2181818.215625.3636363.359375.4363636s.359375.0727273.575.0727273c.503125-.1454546 1.078125-.2909091 1.58125-.2909091 2.803125 0 5.03125 2.2545455 5.03125 5.0909091 0 .4363636-.071875.8727273-.14375 1.3090909-.071875.2181818 0 .4363636.14375.6545455.14375.1454545.359375.290909.575.290909h.14375c2.803125 0 5.03125 2.2545455 5.03125 5.0909091 0 2.8363637-2.228125 5.0909091-5.03125 5.0909091h-10.78125c-.575 0-1.15-.2181818-1.509375-.6545454-.43125-.4363637-.646875-1.0181818-.646875-1.6v-3.6363637h3.59375c.2875 0 .575-.1454545.646875-.4363636.14375-.2909091.071875-.5818182-.14375-.8l-5.75-5.8181818c-.2875-.2909091-.71875-.2909091-1.00625 0l-5.75 5.8181818c-.215625.2181818-.2875.5090909-.14375.8s.359375.4363636.646875.4363636h3.59375v2.4545455h1.4375v-3.1818182c0-.4363636-.2875-.7272727-.71875-.7272727h-2.5875l4.025-4.0727273 4.025 4.0727273h-2.5875c-.43125 0-.71875.2909091-.71875.7272727v4.3636364c0 .9454545.359375 1.8909091 1.078125 2.5454545.646875.6545455 1.58125 1.0909091 2.515625 1.0909091h10.78125c3.59375 0 6.46875-2.9090909 6.46875-6.5454545 0-3.3454546-2.515625-6.1818182-5.821875-6.5454546z" fill="#fff" transform="translate(-31 -34)"/></svg>