<svg height="33" viewBox="0 0 29 33" width="29" xmlns="http://www.w3.org/2000/svg"><path d="m731.289419 1093 14.289419 8.25v16.5l-14.289419 8.25-14.289419-8.25v-16.5zm6.737952 14.0637h-.001395c.090689-.04208.09627-.46677.009766-1.27409-.073946-.806-.256719-1.55283-.5539-2.23261l-.439492.09467c-.292995.04207-.758997.2038-1.407772.47729-.639008.27743-1.307315.64164-2.006318 1.08606-.474373-.12622-1.184537-.19197-2.133283-.19197-.904098 0-1.612867.06443-2.131887.19197-1.534736-.99928-2.815543-1.55415-3.856372-1.65802-.295786.67978-.478559 1.42398-.552505 2.23261-.083713.80732-.078132 1.23201.013952 1.27409-.835734.8507-1.254298 1.88286-1.254298 3.09383 0 .78497.09906 1.49236.287414 2.12085.19254.62455.436702 1.13735.726907 1.52917.295785.39314.65296.73894 1.085477 1.03478.428331.29979.824571.51674 1.183141.65348.359966.14069.768764.24588 1.237556.31951.459025.07626.806433.11702 1.049201.12886.231605.01183.48693.01446.760392.01446.061389 0 .269276.00657.608313.01578.333456.01315.62087.01972.844105.01972.223234 0 .510648-.00657.844104-.01972.341828-.00921.546924-.01578.608314-.01578.273462 0 .527391-.00526.760392-.01446.241372-.01052.590175-.0526 1.050596-.12886.466002-.07494.87759-.18145 1.23616-.31951s.754811-.35238 1.185932-.65348c.431121-.29321.788296-.64033 1.084082-1.03478.291599-.39051.534367-.9033.726906-1.52917.189749-.62849.287414-1.33588.287414-2.12085 0-1.21097-.419959-2.24313-1.252902-3.09383zm-6.493328 8.19413-.073946-.00263c-1.872377 0-3.280149-.21038-4.226104-.63639-.947351-.42338-1.420328-1.29775-1.420328-2.61523 0-.78759.295785-1.4253.87759-1.91442.251138-.21169.563666-.35764.950141-.44442.382288-.08283.735277-.12096 1.065943-.11176.322295.01315.775739.03945 1.353358.08021.577619.04207 1.04362.06311 1.471951.06311.315319 0 .901309-.02893 1.75797-.09467.859452-.06311 1.497065-.06311 1.908654 0 .422749.06574.791086.23273 1.105009.51016.609709.51016.915261 1.15049.915261 1.91442 0 1.31748-.48693 2.19185-1.442652 2.61654-.958512.42339-2.370469.63508-4.242847.63508zm-2.708111-4.4626c-.315318 0-.583199.13675-.799457.4155-.216259.27611-.32369.61534-.32369 1.019s.108827.74421.32369 1.02032c.216258.27744.484139.41418.799457.41418.2916 0 .545529-.13937.760392-.41418.216259-.2748.32369-.61534.32369-1.02032 0-.40366-.108827-.7442-.32369-1.019-.213468-.27875-.466001-.4155-.760392-.4155zm5.377157 0c-.309738 0-.58041.13675-.796668.4155-.216258.27611-.322294.61534-.322294 1.019s.110222.74421.322294 1.02032c.216258.27744.484139.41418.796668.41418.292995 0 .546924-.13937.763182-.41418.216258-.2748.323689-.61534.323689-1.02032 0-.40366-.108826-.7442-.323689-1.019-.216258-.27875-.466002-.4155-.763182-.4155z" fill="#031e34" fill-rule="evenodd" transform="translate(-717 -1093)"/></svg>