<svg height="33" viewBox="0 0 29 33" width="29" xmlns="http://www.w3.org/2000/svg"><path d="m686.289419 1093 14.289419 8.25v16.5l-14.289419 8.25-14.289419-8.25v-16.5zm8.798972 11.57478.000711.00071c-.689292.2965-1.378584.48175-2.067876.55575.778478-.4668 1.304816-1.12644 1.579015-1.97892-.711589.42268-1.471328.71182-2.279219.86742-.711114-.75618-1.585656-1.13427-2.623627-1.13427-.992903.00047-1.839693.35081-2.540371 1.05102-.700678.7002-1.051016 1.54699-1.051016 2.54037 0 .26661.029649.5408.088948.82259-1.46777-.074-2.844694-.44284-4.130772-1.10652-1.286077-.66367-2.377654-1.5477-3.27473-2.65209-.326382.55599-.489573 1.16013-.489573 1.81242-.000475.61529.143978 1.18598.433357 1.71208.28938.5261.678619.95234 1.167717 1.27873-.578284-.0223-1.119329-.17434-1.623134-.45613v.04483c0 .86719.272302 1.62882.816904 2.28491.544603.65608 1.231997 1.06928 2.062184 1.23959-.311201.08159-.626198.12239-.94499.12239-.207309 0-.433357-.0185-.678144-.0555.229606.7187.652053 1.30979 1.26734 1.77327.615287.46349 1.312169.70258 2.090647.71729-1.304579 1.02279-2.790851 1.53418-4.458814 1.53418-.318792 0-.607934-.01494-.867427-.04483 1.667964 1.07497 3.506235 1.61246 5.514812 1.61246 1.275167-.00047 2.472296-.20257 3.591388-.60627 1.119091-.40371 2.075229-.94476 2.868413-1.62314s1.477021-1.45852 2.05151-2.34041c.574489-.8819 1.002628-1.80293 1.284418-2.7631.281789-.96017.422683-1.922.422683-2.88549 0-.20731-.003795-.36291-.011385-.4668.703998-.5114 1.304342-1.13024 1.801031-1.85654z" fill="#031e34" fill-rule="evenodd" transform="translate(-672 -1093)"/></svg>